<svg width="24" height="24" viewBox="0 0 24 24" fill="none" xmlns="http://www.w3.org/2000/svg">
<path d="M21.1667 4.22222H2.83333C2.37312 4.22222 2 3.72472 2 3.11111C2 2.4975 2.37312 2 2.83333 2H21.1667C21.6269 2 22 2.4975 22 3.11111C22 3.72472 21.6269 4.22222 21.1667 4.22222ZM22 12C22 11.3864 21.6269 10.8889 21.1667 10.8889H2.83333C2.37312 10.8889 2 11.3864 2 12C2 12.6136 2.37312 13.1111 2.83333 13.1111H21.1667C21.6269 13.1111 22 12.6136 22 12ZM22 20.8889C22 20.2753 21.6269 19.7778 21.1667 19.7778H2.83333C2.37312 19.7778 2 20.2753 2 20.8889C2 21.5025 2.37312 22 2.83333 22H21.1667C21.6269 22 22 21.5025 22 20.8889Z" fill="black"/>
</svg>
